<?xml version="1.0" standalone="no"?><!DOCTYPE svg PUBLIC "-//W3C//DTD SVG 1.1//EN" "http://www.w3.org/Graphics/SVG/1.1/DTD/svg11.dtd"><svg class="icon" width="16px" height="16.00px" viewBox="0 0 1024 1024" version="1.1" xmlns="http://www.w3.org/2000/svg"><path fill="#ffffff" d="M736.02 64H287.98c-61.86 0-112.01 50.15-112.01 112.01v746.74c0.05 20.62 16.81 37.3 37.43 37.25a37.29 37.29 0 0 0 22.68-7.75l230-178.84c27-21.05 64.85-21.05 91.85 0l230 178.84c16.34 12.58 39.78 9.53 52.36-6.81 5.01-6.5 7.73-14.48 7.75-22.69V176.01C848.03 114.15 797.88 64 736.02 64zM624.01 437.37h-74.67v74.67c0 20.62-16.72 37.34-37.34 37.34s-37.34-16.72-37.34-37.34v-74.67h-74.67c-20.62 0-37.34-16.72-37.34-37.34s16.72-37.34 37.34-37.34h74.67v-74.67c0-20.62 16.72-37.34 37.34-37.34s37.34 16.72 37.34 37.34v74.67h74.67c20.62 0 37.34 16.72 37.34 37.34s-16.72 37.34-37.34 37.34z"  opacity=".89" /></svg>