<?xml version="1.0" standalone="no"?><!DOCTYPE svg PUBLIC "-//W3C//DTD SVG 1.1//EN" "http://www.w3.org/Graphics/SVG/1.1/DTD/svg11.dtd"><svg class="icon" width="16px" height="15.98px" viewBox="0 0 1025 1024" version="1.1" xmlns="http://www.w3.org/2000/svg"><path fill="#ffffff" d="M704 128l-128 0 0-64c0-35.20512-28.79488-64-64-64l-128 0c-35.20512 0-64 28.79488-64 64l0 64-128 0 0 128 512 0 0-128zM512 128l-128 0 0-63.87712c0.04096-0.04096 0.08192-0.08192 0.12288-0.12288l127.77472 0c0.04096 0.04096 0.08192 0.08192 0.12288 0.12288l0 63.87712zM832 320l0-160.01024c0-17.59232-14.39744-32.01024-32.01024-32.01024l-64 0 0 64 32.01024 0 0 128-192 0-192 192 0 256-256 0 0-576 32.01024 0 0-64-64 0c-17.59232 0-32.01024 14.39744-32.01024 32.01024l0 640c0 17.59232 14.39744 32.01024 32.01024 32.01024l288.01024 0 0 192 640 0 0-704-192 0zM576 410.50112l0 101.49888-101.49888 0 101.49888-101.49888zM960 960l-512 0 0-384 192 0 0-192 320 0 0 576z" /></svg>