<?xml version="1.0" standalone="no"?><!DOCTYPE svg PUBLIC "-//W3C//DTD SVG 1.1//EN" "http://www.w3.org/Graphics/SVG/1.1/DTD/svg11.dtd"><svg t="1602211779283" class="icon" viewBox="0 0 1024 1024" version="1.1" xmlns="http://www.w3.org/2000/svg" p-id="9464" xmlns:xlink="http://www.w3.org/1999/xlink" width="200" height="200"><defs><style type="text/css"></style></defs><path d="M966.4 130.133333 966.4 130.133333l-298.666667-85.333333 0 0C665.6 42.666667 663.466667 42.666667 661.333333 42.666667s-4.266667 0-6.4 2.133333l0 0L362.666667 128 70.4 42.666667l0 0C68.266667 42.666667 66.133333 42.666667 64 42.666667 51.2 42.666667 42.666667 51.2 42.666667 64l0 810.666667c0 10.666667 6.4 17.066667 14.933333 19.2l0 0 298.666667 85.333333 0 0c2.133333 0 4.266667 2.133333 6.4 2.133333s4.266667 0 6.4-2.133333l0 0L661.333333 896 953.6 981.333333l0 0c2.133333 0 4.266667 2.133333 6.4 2.133333 12.8 0 21.333333-8.533333 21.333333-21.333333L981.333333 149.333333C981.333333 138.666667 974.933333 132.266667 966.4 130.133333zM341.333333 932.266667 85.333333 857.6 85.333333 91.733333l256 72.533333L341.333333 932.266667zM640 857.6l-256 72.533333L384 166.4l256-72.533333L640 857.6zM938.666667 932.266667l-256-72.533333L682.666667 91.733333l256 72.533333L938.666667 932.266667z" p-id="9465"></path></svg>