<?xml version="1.0" standalone="no"?><!DOCTYPE svg PUBLIC "-//W3C//DTD SVG 1.1//EN" "http://www.w3.org/Graphics/SVG/1.1/DTD/svg11.dtd"><svg class="icon" width="26px" height="18.37px" viewBox="0 0 1449 1024" version="1.1" xmlns="http://www.w3.org/2000/svg"><path fill="#ffffff" d="M1212.1153854240256 703.4320348704459l-981.366631551125 0.005656854249536991 0.026870057685101756-390.06414213306005 981.3227909306913-0.014142135623728791 0.017677669529717832 390.07333452121543zM1183.1600698412176 674.4767192876379l-0.014849242404977758-332.1612891420374-923.4347871820735-0.005656854249536991-0.01060660171773975 332.1768454912233 92.27460651771973 0-0.009192388155433662-101.92166433344778 28.94895162177727 0.0056568542494890295-0.0014142135623771424 101.91105773173001 89.13434530247025 0.004949747468295129 0-205.99293328170276 28.938345020059476-0.00494974746830934 0 205.99293328170276 89.11383920581585 0.007071067811871501 0.012020815280173736-101.92166433344778 28.94895162177727 0.0056568542494890295-0.00494974746830934 101.91742169276066 89.13929504993861 0-0.030405591591019743-206.00212566985817 28.960972437057443-0.006363961030677601 0.025455844122703297 206.00707541732652 89.10181839053567-0.00494974746830934-0.00494974746830934-101.89620848932506 28.95036583533964-0.007071067811862619-0.0021213203435692662 101.90327955713698 89.14353769062572-0.004242640687117216-0.010606601717782382-205.98232667998485 28.95178004890201-0.005656854249492582-0.0007071067812063347 205.99364038848393 89.1244458075337 0.0035355339059321977 0-101.91247194529235 28.939759233621853 0.006363961030679377 0.009192388155433662 101.90327955713698 93.80832112611336-0.010606601717789488z"  /></svg>