<?xml version="1.0" standalone="no"?><!DOCTYPE svg PUBLIC "-//W3C//DTD SVG 1.1//EN" "http://www.w3.org/Graphics/SVG/1.1/DTD/svg11.dtd"><svg class="icon" width="26px" height="26.00px" viewBox="0 0 1024 1024" version="1.1" xmlns="http://www.w3.org/2000/svg"><path d="M638.464 416.256H384V223.232c0-70.144 56.832-127.488 127.488-127.488s127.488 56.832 127.488 127.488l-0.512 193.024z" fill="#FFFFFF" /><path d="M663.552 441.344H358.912V223.232c0-83.968 68.096-152.064 152.064-152.064s152.064 68.096 152.064 152.064v218.112z m-254.464-50.176h204.8V223.232c0-56.32-46.08-102.4-102.4-102.4s-102.4 46.08-102.4 102.4v167.936z" fill="#666666" /><path d="M832 607.744h-640V522.24c0-58.88 47.616-106.496 106.496-106.496h427.008c58.88 0 106.496 47.616 106.496 106.496v85.504z" fill="#FFFFFF" /><path d="M832 632.832H166.912v-110.08c0-72.704 58.88-131.584 131.584-131.584h427.008c72.704 0 131.584 58.88 131.584 131.584v85.504h-25.088v24.576z m-614.912-50.176h590.336V522.24c0-45.056-36.352-81.408-81.408-81.408H298.496c-45.056 0-81.408 36.352-81.408 81.408v60.416z" fill="#666666" /><path d="M192 607.744h640v255.488h-640v-255.488z" fill="#FFFFFF" /><path d="M857.088 888.832H166.912v-305.664h690.176v305.664z m-640-50.176h590.336v-205.824H217.088v205.824z" fill="#666666" /><path d="M334.336 735.744H384v128h-50.176v-128z m152.576 0h50.176v128h-50.176v-128z m153.088 0h50.176v128H640v-128z" fill="#666666" /></svg>