<?xml version="1.0" standalone="no"?><!DOCTYPE svg PUBLIC "-//W3C//DTD SVG 1.1//EN" "http://www.w3.org/Graphics/SVG/1.1/DTD/svg11.dtd"><svg class="icon" width="26px" height="26.00px" viewBox="0 0 1024 1024" version="1.1" xmlns="http://www.w3.org/2000/svg"><path fill="#ffffff" d="M601.6 768h25.6v25.6h-25.6z"  /><path fill="#ffffff" d="M883.2 793.6H652.8v-25.6h199.488L153.6 69.2992V768h422.4v25.6H140.8a12.8 12.8 0 0 1-12.8-12.8V38.4a12.8256 12.8256 0 0 1 21.8496-9.0496l742.4 742.4A12.8 12.8 0 0 1 883.2 793.6z"  /><path fill="#ffffff" d="M371.2 627.2h25.6v25.6h-25.6z"  /><path fill="#ffffff" d="M512 652.8h-89.6v-25.6h58.7008L294.4 440.4992V627.2h51.2v25.6h-64a12.8 12.8 0 0 1-12.8-12.8V409.6a12.8256 12.8256 0 0 1 21.8496-9.0496l230.4 230.4A12.8 12.8 0 0 1 512 652.8zM140.8 166.4h51.2v25.6H140.8zM140.8 268.8h76.8v25.6H140.8zM140.8 371.2h51.2v25.6H140.8zM140.8 473.6h76.8v25.6H140.8zM140.8 576h51.2v25.6H140.8zM140.8 678.4h76.8v25.6H140.8zM259.7504 157.3504l18.0992 18.0992-38.4 38.4-18.112-18.0992zM323.7504 221.3504l18.0992 18.0992-38.4 38.4-18.112-18.0992zM387.7504 285.3504l18.0992 18.0992-38.4 38.4-18.112-18.0992zM451.7504 349.3504l18.0992 18.0992-38.4 38.4-18.112-18.0992zM515.7504 413.3504l18.0992 18.0992-38.4 38.4-18.112-18.0992zM579.7504 477.3504l18.0992 18.0992-38.4 38.4-18.112-18.0992zM643.7504 541.3504l18.0992 18.0992-38.4 38.4-18.112-18.0992zM707.7504 605.3376l18.0992 18.112-38.4 38.4-18.112-18.0992zM771.7504 669.3376l18.0992 18.112-38.4 38.4-18.112-18.0992z"  /></svg>