<?xml version="1.0" standalone="no"?><!DOCTYPE svg PUBLIC "-//W3C//DTD SVG 1.1//EN" "http://www.w3.org/Graphics/SVG/1.1/DTD/svg11.dtd"><svg class="icon" width="26px" height="18.37px" viewBox="0 0 1449 1024" version="1.1" xmlns="http://www.w3.org/2000/svg"><path fill="#ffffff" d="M533.9012984628877 998.7820520906927l-0.005656854249480148-981.3666315511248 390.06414213306005 0.026870057685101756 0.014142135623728791 981.3227909306912-390.07333452121543 0.017677669529717832zM562.8566140456957 969.8267365078847l332.16128914203733-0.014849242404977758 0.005656854249536991-923.4347871820733-332.1768454912233-0.01060660171773975 0 92.27460651771973 101.92166433344778-0.009192388155433662-0.0056568542494890295 28.94895162177727-101.91105773173001-0.0014142135623771424-0.004949747468295129 89.13434530247025 205.99293328170276 0 0.00494974746830934 28.938345020059472-205.99293328170276 0-0.007071067811871501 89.11383920581585 101.92166433344778 0.012020815280173736-0.0056568542494890295 28.94895162177727-101.91742169276066-0.00494974746830934 0 89.1392950499386 206.00212566985817-0.030405591591019743 0.006363961030677601 28.960972437057443-206.00707541732652 0.025455844122703297 0.00494974746830934 89.10181839053567 101.89620848932506-0.00494974746830934 0.007071067811862619 28.95036583533964-101.90327955713698-0.0021213203435692662 0.004242640687117216 89.14353769062572 205.98232667998485-0.010606601717782382 0.005656854249492582 28.95178004890201-205.99364038848393-0.0007071067812063347-0.0035355339059321977 89.12444580753369 101.91247194529235 0-0.006363961030679377 28.939759233621846-101.90327955713698 0.009192388155433662 0.010606601717789488 93.80832112611336z"  /></svg>