<?xml version="1.0" standalone="no"?><!DOCTYPE svg PUBLIC "-//W3C//DTD SVG 1.1//EN" "http://www.w3.org/Graphics/SVG/1.1/DTD/svg11.dtd"><svg t="1611564523813" class="icon" viewBox="0 0 1024 1024" version="1.1" xmlns="http://www.w3.org/2000/svg" p-id="2612" width="16" height="16" xmlns:xlink="http://www.w3.org/1999/xlink"><defs><style type="text/css"></style></defs><path d="M774.362249 333.231017c16.670651-23.414915 14.520567-56.112192-6.482254-77.113012-21.00082-21.00082-53.698098-23.152904-77.113012-6.482254L521.99439 80.863159c-11.712458-11.716458-30.7092-11.714458-42.427657 0-61.912418 61.912418-96.01175 144.229634-96.01175 231.787054 0 34.537349 5.328208 68.250666 15.552607 100.227915l-62.97046 62.97046-46.60582-46.605821 34.601351-34.601351c19.490761-19.494762 19.490761-51.214001-0.002-70.710762L196.959694 196.757686c-19.496762-19.496762-51.216001-19.496762-70.712762 0l-111.624361 111.62436c-19.496762 19.496762-19.496762 51.216001 0 70.712762l127.168968 127.170968c9.748381 9.748381 22.550881 14.622571 35.357381 14.622571s25.609-4.87419 35.357381-14.622571l34.599352-34.599352 46.60582 46.605821-105.272112 105.272112c-58.788296 58.788296-59.060307 154.170022-0.608024 212.622306 29.121138 29.119137 67.394633 43.661706 105.754131 43.661705 38.641509 0 77.369022-14.766577 106.868175-44.267729l105.272112-105.270112 46.60582 46.605821-34.597351 34.597351c-19.496762 19.496762-19.496762 51.216001 0 70.712762l127.168968 127.170968c9.748381 9.748381 22.550881 14.622571 35.357381 14.622571s25.609-4.87419 35.357381-14.622571l111.62436-111.624361c9.446369-9.444369 14.646572-22.000859 14.646572-35.357381s-5.202203-25.913012-14.644572-35.357381l-127.170967-127.170967c-19.496762-19.496762-51.216001-19.496762-70.712763 0l-34.599351 34.599351-46.605821-46.60582 63.120466-63.120466a329.556873 329.556873 0 0 0 100.077909 15.546607c83.943279 0 167.882558-31.951248 231.787054-95.855744 11.716458-11.716458 11.716458-30.7112 0-42.427657zM177.14892 456.767842L64.122505 343.739427l97.479808-97.481808 113.028415 113.028416z m487.565045 292.59943l113.028416 113.028415-97.481808 97.481808-113.026415-113.028415z m-434.454971 44.371733c-27.697082-27.697082-33.341302-69.288707-17.038665-102.984022l120.022688 120.024688c-33.693316 16.300637-75.284941 10.654416-102.984023-17.040666z m148.98182-21.820852l-127.158967-127.160967 172.700746-172.700746c14.632572 26.213024 32.975288 50.563975 54.78614 72.374827 22.038861 22.038861 46.461815 40.275573 72.44683 54.714137z m142.753576-269.912543c-50.579976-50.579976-78.437064-117.826603-78.437064-189.357397 0-61.4304 20.548803-119.708676 58.388281-166.976523L878.314309 522.038392c-105.042103 83.891277-259.07812 77.209016-356.319919-20.032782zM720.610149 174.58882c71.022774 0 128.801031 57.780257 128.801031 128.801031 0 16.568647 13.432525 30.001172 30.001172 30.001172s30.001172-13.432525 30.001172-30.001172c0-104.106067-84.697308-188.803375-188.803375-188.803375-16.568647 0-30.001172 13.432525-30.001172 30.001172s13.430525 30.001172 30.001172 30.001172z" p-id="2613" fill="#ffffff"></path><path d="M748.873253 0c-16.568647 0-30.001172 13.432525-30.001172 30.001172s13.432525 30.001172 30.001172 30.001172C867.493886 60.002344 963.997656 156.506114 963.997656 275.124747c0 16.568647 13.432525 30.001172 30.001172 30.001172s30.001172-13.432525 30.001172-30.001172C1024 123.420821 900.579179 0 748.873253 0z" p-id="2614" fill="#ffffff"></path></svg>