<?xml version="1.0" standalone="no"?><!DOCTYPE svg PUBLIC "-//W3C//DTD SVG 1.1//EN" "http://www.w3.org/Graphics/SVG/1.1/DTD/svg11.dtd"><svg class="icon" width="32px" height="32.00px" viewBox="0 0 1024 1024" version="1.1" xmlns="http://www.w3.org/2000/svg"><path fill="#ffffff" d="M868.827 129.535C883.995 132.344 895 145.574 895 161v416c0 65.117-20.537 126.132-61.043 181.348-31.469 42.902-74.962 82.188-129.271 116.769-90.786 57.809-180.472 82.717-184.245 83.749a32.015 32.015 0 0 1-16.676 0.057c-3.795-1.011-94.008-25.416-185.329-82.977-54.635-34.438-98.39-73.704-130.05-116.709C147.653 703.907 127 642.594 127 577V161c0-15.438 11.022-28.675 26.205-31.47l353-65a31.995 31.995 0 0 1 11.622 0.005l351 65zM831 577V194.273a8 8 0 0 0-6.543-7.867l-311.021-57.595a8 8 0 0 0-2.906-0.001l-312.979 57.63a8 8 0 0 0-6.551 7.867V577c0 138.741 106.103 244.324 318.31 316.747a8 8 0 0 0 5.159 0.003c60.326-20.508 112.691-44.98 157.095-73.417C777.358 752.581 831 670.712 831 577z m-379.716-11.045l221.647-173.17c13.927-10.88 34.037-8.411 44.918 5.515 10.88 13.927 8.411 34.037-5.515 44.918L471.202 631.61c-6.912 5.4-15.346 7.512-23.42 6.567a31.85 31.85 0 0 1-16.492-6.627L312.3 538.586c-13.926-10.881-16.396-30.991-5.515-44.918 10.88-13.927 30.991-16.396 44.918-5.515l99.581 77.802z" /></svg>