<svg t="1603156242678" class="icon" viewBox="0 0 1024 1024" version="1.1" xmlns="http://www.w3.org/2000/svg" p-id="4545" width="200" height="200"><path d="M416 544a64 64 0 0 1 64 64v192a64 64 0 0 1-64 64H224a64 64 0 0 1-64-64v-192a64 64 0 0 1 64-64h192z m384 0a64 64 0 0 1 64 64v192a64 64 0 0 1-64 64h-192a64 64 0 0 1-64-64v-192a64 64 0 0 1 64-64h192z m-384 64H224v192h192v-192z m384 0h-192v192h192v-192zM757.024 146.752l135.744 135.744a64 64 0 0 1 0 90.528l-135.744 135.744a64 64 0 0 1-90.528 0l-135.744-135.744a64 64 0 0 1 0-90.528l135.744-135.744a64 64 0 0 1 90.528 0zM416 160a64 64 0 0 1 64 64v192a64 64 0 0 1-64 64H224a64 64 0 0 1-64-64V224a64 64 0 0 1 64-64h192z m295.776 32L576 327.776l135.776 135.744 135.744-135.744L711.776 192zM416 224H224v192h192V224z" p-id="4546"></path></svg>