<?xml version="1.0" standalone="no"?><!DOCTYPE svg PUBLIC "-//W3C//DTD SVG 1.1//EN" "http://www.w3.org/Graphics/SVG/1.1/DTD/svg11.dtd"><svg class="icon" width="24px" height="24.00px" viewBox="0 0 1024 1024" version="1.1" xmlns="http://www.w3.org/2000/svg"><path fill="#ffffff" d="M900.037199 348.800058 900.037199 615.542214 840.291466 615.542214 840.291466 436.379719 780.633738 436.379719 780.633738 615.542214 720.918705 615.542214 720.918705 436.379719 661.259954 436.379719 661.259954 615.542214 601.514221 615.542214 601.514221 436.379719 541.857517 436.379719 541.857517 615.542214 482.140437 615.542214 482.140437 436.379719 422.482709 436.379719 422.482709 615.542214 362.738 615.542214 362.738 436.379719 303.080272 436.379719 303.080272 615.542214 243.363192 615.542214 243.363192 436.379719 183.705464 436.379719 183.705464 615.542214 123.960755 615.542214 123.960755 348.800058 64.303027 348.800058 64.303027 651.921773 64.390008 651.921773 64.390008 675.200966 900.037199 675.200966 925.339468 675.200966 959.69595 675.200966 959.69595 348.800058Z" /></svg>