<svg t="1605474305312" class="icon" viewBox="0 0 1024 1024" version="1.1" xmlns="http://www.w3.org/2000/svg" p-id="5466" width="200" height="200">

<path d="M535.630769 78.769231a78.769231 78.769231 0 0 1 78.753477 80.4864l111.537231 43.937477a78.769231 78.769231 0 1 1 123.525908 97.768369l60.683815 95.279261a78.769231 78.769231 0 1 1-53.878154 105.487754L630.153846 505.099815a95.0272 95.0272 0 0 1-1.449354 15.5648l191.56677 155.31717a78.769231 78.769231 0 1 1 14.1312 111.285169l-84.188554 64.779815a78.769231 78.769231 0 0 1-148.401231 52.302769l-117.397662 2.567877A78.800738 78.800738 0 0 1 330.830769 882.215385a78.769231 78.769231 0 0 1 93.026462-77.477416l63.094154-219.577107a94.995692 94.995692 0 0 1-25.017108-21.850585l-179.278769 149.409477a78.769231 78.769231 0 1 1-116.20037-56.871385L140.366769 551.368862a78.769231 78.769231 0 1 1 25.347939-153.836308l59.51803-92.5696a78.769231 78.769231 0 1 1 131.15077-22.764308l147.424492 132.899446a93.908677 93.908677 0 0 1 19.140923-4.647384V235.283692A78.784985 78.784985 0 0 1 535.630769 78.769231z m18.384739 518.096738a94.995692 94.995692 0 0 1-28.167877 1.276062l-64.543508 224.649846a78.706215 78.706215 0 0 1 25.363692 43.118277l114.246893-2.520616a78.911015 78.911015 0 0 1 36.4544-49.010215z m57.974154-37.005784c-5.7344 7.829662-12.618831 14.729846-20.432739 20.48L677.037292 803.446154H677.415385c17.975138 0 34.548185 6.017969 47.797169 16.163446l84.204308-64.779815a78.532923 78.532923 0 0 1-5.450831-39.305847z m-170.8032-51.861662l-230.872616 3.4816a79.147323 79.147323 0 0 1-30.200123 29.963815l26.119877 104.479508a78.611692 78.611692 0 0 1 58.887877 28.089108l178.3808-148.653292a94.570338 94.570338 0 0 1-2.315815-17.360739z m-109.914585-193.252431A78.422646 78.422646 0 0 1 283.569231 330.830769c-8.349538 0-16.384-1.291815-23.930093-3.702154l-59.502276 92.5696A78.485662 78.485662 0 0 1 220.553846 472.615385l-0.047261-2.2528 228.210215-3.450093a94.680615 94.680615 0 0 1 19.329969-28.8768z m420.218092 7.294031l-144.352492 120.264862c5.718646 6.616615 10.523569 14.005169 14.241477 22.008123l230.210954-3.465846a78.564431 78.564431 0 0 1 22.780061-44.52037l-57.895384-90.915446A78.564431 78.564431 0 0 1 787.692308 330.830769c-13.044185 0-25.363692-3.166523-36.202339-8.790646z m-148.700554-123.321108a79.037046 79.037046 0 0 1-38.880492 32.3584v182.823385c3.150769 0.992492 6.222769 2.142523 9.231754 3.434338l147.897108-123.273846a78.406892 78.406892 0 0 1-11.327016-53.216492z"  p-id="5468"></path></svg>