<?xml version="1.0" standalone="no"?><!DOCTYPE svg PUBLIC "-//W3C//DTD SVG 1.1//EN" "http://www.w3.org/Graphics/SVG/1.1/DTD/svg11.dtd"><svg class="icon" width="24px" height="24.00px" viewBox="0 0 1024 1024" version="1.1" xmlns="http://www.w3.org/2000/svg"><path fill="#ffffff" d="M551.302999 146.6115V40.360712a40.360712 40.360712 0 1 0-80.721423 0v106.250788a158.038931 158.038931 0 0 0 0 305.136705v529.551986a40.360712 40.360712 0 1 0 80.721423 0V451.748205a158.038931 158.038931 0 0 0 0-305.136705zM510.942287 376.862065a77.195939 77.195939 0 1 1 77.19594-77.195939A77.317508 77.317508 0 0 1 510.942287 376.862065zM221.974181 570.034266V40.360712a40.48228 40.48228 0 0 0-80.842991 0v529.673554a158.038931 158.038931 0 0 0 0 305.136704v106.129221a40.48228 40.48228 0 1 0 80.842991 0V875.292539a158.038931 158.038931 0 0 0 0-305.136705zM181.61347 799.798557a77.195939 77.195939 0 1 1 77.195939-77.195939A77.317508 77.317508 0 0 1 181.61347 799.798557zM998.310036 722.602618a158.038931 158.038931 0 0 0-117.678219-152.568352V40.360712a40.360712 40.360712 0 1 0-80.721423 0v529.673554a158.038931 158.038931 0 0 0 0 305.136704v106.129221a40.360712 40.360712 0 1 0 80.721423 0V875.292539a158.038931 158.038931 0 0 0 117.678219-152.689921z m-158.038931 77.195939a77.195939 77.195939 0 1 1 77.195939-77.195939 77.317508 77.317508 0 0 1-77.195939 77.195939z"  /></svg>