<?xml version="1.0" standalone="no"?><!DOCTYPE svg PUBLIC "-//W3C//DTD SVG 1.1//EN" "http://www.w3.org/Graphics/SVG/1.1/DTD/svg11.dtd"><svg class="icon" width="24px" height="24.00px" viewBox="0 0 1055 1024" version="1.1" xmlns="http://www.w3.org/2000/svg"><path fill="#ffffff" d="M360.85225 320.724528H99.576197L26.157329 41.613933 83.525109 26.454572l62.123657 234.82148h215.203484v59.448476zM952.959071 320.724528h-261.276052v-59.448476h215.500726L969.01016 26.454572l57.367779 15.159361-73.418868 279.110595zM83.525109 1024l-57.36778-15.159361 73.418868-279.110595h261.276053v59.448476H145.648766l-62.123657 234.82148zM969.01016 1024l-61.826415-234.82148h-215.500726v-59.448476h261.276052l73.418868 279.110595-57.367779 15.159361zM0 521.363135h241.658055v59.448476H0zM813.552395 521.363135h241.955297v59.448476h-241.955297z"  /><path fill="#ffffff" d="M534.739042 193.207547m-193.207547 0a193.207547 193.207547 0 1 0 386.415094 0 193.207547 193.207547 0 1 0-386.415094 0Z"  /><path fill="#ffffff" d="M206.583454 554.654282a370.958491 326.074891 90 1 0 652.149783 0 370.958491 326.074891 90 1 0-652.149783 0Z"  /></svg>