<svg class="icon" viewBox="0 0 1024 1024" version="1.1" xmlns="http://www.w3.org/2000/svg" p-id="22093" height="128" width="128"><path d="M853.333333 597.333333a108.8 108.8 0 1 0 108.373334 108.8A108.8 108.8 0 0 0 853.333333 597.333333z m-341.333333-336.64a109.226667 109.226667 0 1 0-108.373333-108.8A108.8 108.8 0 0 0 512 260.693333z m361.813333 270.506667a170.666667 170.666667 0 0 1 66.986667 23.04v-4.693333a432.213333 432.213333 0 0 0-256-393.813334 170.666667 170.666667 0 0 1-14.933333 67.413334 364.373333 364.373333 0 0 1 203.946666 308.053333z m-593.066666 173.653333A108.373333 108.373333 0 1 0 170.666667 813.653333a108.8 108.8 0 0 0 110.08-108.8z m-130.56-173.653333a365.226667 365.226667 0 0 1 202.24-308.48 167.253333 167.253333 0 0 1-14.933334-66.986667 432.213333 432.213333 0 0 0-256 393.813334A17.493333 17.493333 0 0 0 85.333333 554.666667a164.693333 164.693333 0 0 1 64.853334-23.466667z m361.813333 384a359.253333 359.253333 0 0 1-224-78.506667 172.8 172.8 0 0 1-61.44 35.413334 426.666667 426.666667 0 0 0 570.88 0 172.8 172.8 0 0 1-61.44-35.413334A359.253333 359.253333 0 0 1 512 914.346667z" p-id="22094"></path></svg>