<?xml version="1.0" standalone="no"?><!DOCTYPE svg PUBLIC "-//W3C//DTD SVG 1.1//EN" "http://www.w3.org/Graphics/SVG/1.1/DTD/svg11.dtd"><svg t="1611580974205" class="icon" viewBox="0 0 1024 1024" version="1.1" xmlns="http://www.w3.org/2000/svg" p-id="2868" width="24" height="24" xmlns:xlink="http://www.w3.org/1999/xlink"><defs><style type="text/css"></style></defs><path d="M913.892727 155.255255L776.972338 14.737202a45.368213 45.368213 0 0 0-66.933279 0l-198.980089 204.292918a48.254711 48.254711 0 0 0 0 68.627527l54.13229 55.512789-27.066145 27.798227-17.486319-17.988319a125.750898 125.750898 0 0 0-90.757343-37.649969 96.425755 96.425755 0 0 0-130.582644-8.17841 102.491584 102.491584 0 0 0 7.969243 133.992058 129.976061 129.976061 0 0 0 36.583221 93.120924l17.549069 18.009236-27.066145 27.777311-54.132289-55.533705a45.347297 45.347297 0 0 0-66.933279 0L14.309457 728.747956a48.296544 48.296544 0 0 0 0 68.627528l136.941305 140.497136a45.305463 45.305463 0 0 0 66.933279 0l198.959172-204.292918a48.108294 48.108294 0 0 0 0-68.627527l-46.163046-47.397128 27.066145-27.798228 60.490951 62.24795a359.180709 359.180709 0 0 1 73.208274-107.82533 349.140717 349.140717 0 0 1 105.106165-75.111689l-60.490951-62.101533 27.066145-27.798227 46.163045 47.397128a45.347297 45.347297 0 0 0 66.93328 0l198.959172-204.292918a47.773628 47.773628 0 0 0-1.547833-66.933279z m-46.142129 352.947547a48.484794 48.484794 0 0 0-11.127658-8.17841 1.464165 1.464165 0 0 1-1.150415-0.460166 1.526915 1.526915 0 0 1-0.460167-1.150416c-3.137497-1.610582-4.748079-3.304831-7.969243-4.915413h-1.610582c-78.060937-43.924964-199.042839-13.093823-288.210517 78.41652a267.503033 267.503033 0 0 0-76.429438 295.74051c1.610582 3.304831 3.200247 4.915413 4.74808 8.199327a1.652415 1.652415 0 0 0 0.43925 1.192249 1.568749 1.568749 0 0 0 1.171332 0.481083c3.221164 4.915413 6.274995 8.199327 7.969243 11.42049 33.46664 23.008315 108.264579-6.505078 187.915181-71.911441l-39.741634-32.692724c-47.836378 39.176885-85.988347 60.490951-97.178755 50.618293-14.641655-14.641655 33.46664-88.205512 106.674914-163.421785s144.910549-124.349482 159.259371-109.707827c9.579826 9.788992-7.969244 43.924964-41.414967 88.205512l31.897891 40.8293c60.490951-78.060937 87.557096-149.951462 65.239031-182.665102z m-191.073595 218.934572a25.978479 25.978479 0 0 1-1.610582-39.197801l4.748079-4.894496a25.622896 25.622896 0 0 1 38.193803 1.589665l43.004631 53.923123a35.160888 35.160888 0 0 1-1.610582 43.924964l14.641655-14.641654a31.249475 31.249475 0 0 1-43.025548 1.610582z m103.07725 21.941566a39.574301 39.574301 0 0 0-38.256553 37.02247 36.562304 36.562304 0 0 0 38.256553 36.938803 37.02247 37.02247 0 1 0 0-73.961273z m94.564173 0a123.408233 123.408233 0 0 1-39.427885 91.301176 127.382397 127.382397 0 0 1-93.392841 38.110136v53.170123a185.4261 185.4261 0 0 0 186.890265-182.874268z m95.693672-1.171333a226.359983 226.359983 0 0 1-228.514398 222.971486v53.107374a279.864773 279.864773 0 0 0 282.563021-276.099776h-54.048623z m0 0" fill="#ffffff" p-id="2869"></path></svg>