<?xml version="1.0" standalone="no"?><!DOCTYPE svg PUBLIC "-//W3C//DTD SVG 1.1//EN" "http://www.w3.org/Graphics/SVG/1.1/DTD/svg11.dtd"><svg t="1602212270089" class="icon" viewBox="0 0 1024 1024" version="1.1" xmlns="http://www.w3.org/2000/svg" p-id="9870" xmlns:xlink="http://www.w3.org/1999/xlink" width="200" height="200"><defs><style type="text/css"></style></defs><path d="M1000.727273 186.181818c-13.963636 0-23.272727 9.309091-23.272728 23.272727v768H209.454545c-13.963636 0-23.272727 9.309091-23.272727 23.272728s9.309091 23.272727 23.272727 23.272727h791.272728c13.963636 0 23.272727-9.309091 23.272727-23.272727V209.454545c0-13.963636-9.309091-23.272727-23.272727-23.272727z m-93.090909 698.181818V93.090909c0-13.963636-9.309091-23.272727-23.272728-23.272727s-23.272727 9.309091-23.272727 23.272727v768H93.090909c-13.963636 0-23.272727 9.309091-23.272727 23.272727s9.309091 23.272727 23.272727 23.272728h791.272727c13.963636 0 23.272727-9.309091 23.272728-23.272728zM791.272727 0H0v791.272727h791.272727V0z m-46.545454 744.727273H46.545455V46.545455h698.181818v698.181818z" fill="#666666" p-id="9871"></path></svg>