<svg t="1607322661375" class="icon" viewBox="0 0 1024 1024" version="1.1" xmlns="http://www.w3.org/2000/svg" p-id="5324" width="200" height="200"><path d="M914.285714 36.571429c62.171429 0 109.714286 47.542857 109.714286 109.714285v731.428572c0 62.171429-47.542857 109.714286-109.714286 109.714285H109.714286c-62.171429 0-109.714286-47.542857-109.714286-109.714285V146.285714c0-62.171429 47.542857-109.714286 109.714286-109.714285h804.571428z m0 73.142857H109.714286c-21.942857 0-36.571429 14.628571-36.571429 36.571428v731.428572c0 21.942857 14.628571 36.571429 36.571429 36.571428h804.571428c21.942857 0 36.571429-14.628571 36.571429-36.571428V146.285714c0-21.942857-14.628571-36.571429-36.571429-36.571428z m-160.914285 475.428571l-3.657143 7.314286c-7.314286 14.628571-21.942857 25.6-36.571429 32.914286l-219.428571 128c-51.2 29.257143-120.685714 14.628571-149.942857-40.228572-10.971429-14.628571-14.628571-36.571429-14.628572-54.857143v-256c0-62.171429 47.542857-109.714286 109.714286-109.714285 18.285714 0 40.228571 3.657143 54.857143 14.628571l219.428571 128c51.2 29.257143 69.485714 91.428571 43.885714 142.628571l-3.657142 7.314286z m-62.171429-40.228571c7.314286-18.285714 0-36.571429-14.628571-47.542857l-219.428572-128c-7.314286-3.657143-10.971429-3.657143-18.285714-3.657143-21.942857 0-36.571429 14.628571-36.571429 36.571428v256c0 7.314286 0 10.971429 3.657143 18.285715 10.971429 18.285714 32.914286 21.942857 51.2 14.628571l219.428572-128 10.971428-10.971429 3.657143-3.657142v-3.657143z" p-id="5325"></path></svg>